<svg xmlns="http://www.w3.org/2000/svg" xmlns:xlink="http://www.w3.org/1999/xlink" width="378" zoomAndPan="magnify" viewBox="0 0 283.5 283.500005" height="378" preserveAspectRatio="xMidYMid meet" version="1.0"><defs><g/><clipPath id="8b1df52d1d"><path d="M 0 0 L 283 0 L 283 283 L 0 283 Z M 0 0 " clip-rule="nonzero"/></clipPath><clipPath id="61f419b8cf"><path d="M 24.636719 24.433594 L 258.769531 24.433594 L 258.769531 258.566406 L 24.636719 258.566406 Z M 24.636719 24.433594 " clip-rule="nonzero"/></clipPath><clipPath id="8a8a4dc1ee"><path d="M 141.703125 24.433594 C 77.046875 24.433594 24.636719 76.847656 24.636719 141.5 C 24.636719 206.15625 77.046875 258.566406 141.703125 258.566406 C 206.355469 258.566406 258.769531 206.15625 258.769531 141.5 C 258.769531 76.847656 206.355469 24.433594 141.703125 24.433594 Z M 141.703125 24.433594 " clip-rule="nonzero"/></clipPath><clipPath id="91282bdf58"><path d="M 0.636719 0.433594 L 234.769531 0.433594 L 234.769531 234.566406 L 0.636719 234.566406 Z M 0.636719 0.433594 " clip-rule="nonzero"/></clipPath><clipPath id="571fe2c1da"><path d="M 117.703125 0.433594 C 53.046875 0.433594 0.636719 52.847656 0.636719 117.5 C 0.636719 182.15625 53.046875 234.566406 117.703125 234.566406 C 182.355469 234.566406 234.769531 182.15625 234.769531 117.5 C 234.769531 52.847656 182.355469 0.433594 117.703125 0.433594 Z M 117.703125 0.433594 " clip-rule="nonzero"/></clipPath><clipPath id="7ec1ace22b"><rect x="0" width="235" y="0" height="235"/></clipPath><clipPath id="6f4cc8a07a"><path d="M 46.597656 46.394531 L 236.785156 46.394531 L 236.785156 236.582031 L 46.597656 236.582031 Z M 46.597656 46.394531 " clip-rule="nonzero"/></clipPath><clipPath id="a2ba6ce58c"><path d="M 141.703125 46.394531 C 89.175781 46.394531 46.597656 88.972656 46.597656 141.5 C 46.597656 194.023438 89.175781 236.605469 141.703125 236.605469 C 194.226562 236.605469 236.808594 194.023438 236.808594 141.5 C 236.808594 88.972656 194.226562 46.394531 141.703125 46.394531 Z M 141.703125 46.394531 " clip-rule="nonzero"/></clipPath><clipPath id="5debe94a90"><path d="M 0.15625 0.132812 L 141 0.132812 L 141 41.582031 L 0.15625 41.582031 Z M 0.15625 0.132812 " clip-rule="nonzero"/></clipPath><clipPath id="af0cd9f621"><rect x="0" width="142" y="0" height="42"/></clipPath><clipPath id="8a3783ed17"><path d="M 0.488281 1 L 203 1 L 203 102.566406 L 0.488281 102.566406 Z M 0.488281 1 " clip-rule="nonzero"/></clipPath><clipPath id="086f4e5ec8"><rect x="0" width="204" y="0" height="103"/></clipPath><clipPath id="6e0c5717ab"><rect x="0" width="283" y="0" height="283"/></clipPath></defs><path fill="#ffffff" d="M 0 0 L 283 0 L 283 283 L 0 283 Z M 0 0 " fill-opacity="1" fill-rule="nonzero"/><g transform="matrix(1, 0, 0, 1, 0, 0.000000000000005262)"><g clip-path="url(#6e0c5717ab)"><g clip-path="url(#8b1df52d1d)"><rect x="-62.37" width="408.24" fill="#fdfdfd" height="408.240007" y="-62.370001" fill-opacity="1"/></g><g clip-path="url(#61f419b8cf)"><g clip-path="url(#8a8a4dc1ee)"><g transform="matrix(1, 0, 0, 1, 24, 24)"><g clip-path="url(#7ec1ace22b)"><g clip-path="url(#91282bdf58)"><g clip-path="url(#571fe2c1da)"><path fill="#efe9e3" d="M 0.636719 0.433594 L 234.769531 0.433594 L 234.769531 234.566406 L 0.636719 234.566406 Z M 0.636719 0.433594 " fill-opacity="1" fill-rule="nonzero"/></g></g></g></g></g></g><g clip-path="url(#6f4cc8a07a)"><g clip-path="url(#a2ba6ce58c)"><path stroke-linecap="butt" transform="matrix(0.748773, 0, 0, 0.748773, 46.595786, 46.393933)" fill="none" stroke-linejoin="miter" d="M 127.017557 0.000799436 C 56.866348 0.000799436 0.0024981 56.864649 0.0024981 127.015858 C 0.0024981 197.161851 56.866348 254.030917 127.017557 254.030917 C 197.16355 254.030917 254.032616 197.161851 254.032616 127.015858 C 254.032616 56.864649 197.16355 0.000799436 127.017557 0.000799436 Z M 127.017557 0.000799436 " stroke="#000000" stroke-width="2" stroke-opacity="1" stroke-miterlimit="4"/></g></g><g transform="matrix(1, 0, 0, 1, 71, 37)"><g clip-path="url(#af0cd9f621)"><g clip-path="url(#5debe94a90)"><path fill="#efe9e3" d="M 0.457031 28.945312 C 1.621094 27.824219 2.8125 26.730469 4.03125 25.664062 C 5.246094 24.597656 6.488281 23.5625 7.757812 22.554688 C 9.023438 21.546875 10.316406 20.574219 11.628906 19.628906 C 12.945312 18.683594 14.28125 17.773438 15.640625 16.890625 C 16.996094 16.011719 18.375 15.164062 19.777344 14.351562 C 21.175781 13.539062 22.59375 12.757812 24.027344 12.015625 C 25.464844 11.269531 26.917969 10.558594 28.390625 9.882812 C 29.859375 9.207031 31.347656 8.566406 32.847656 7.964844 C 34.351562 7.359375 35.863281 6.792969 37.394531 6.261719 C 38.921875 5.730469 40.464844 5.238281 42.015625 4.78125 C 43.570312 4.324219 45.132812 3.902344 46.703125 3.523438 C 48.277344 3.140625 49.859375 2.796875 51.445312 2.492188 C 53.035156 2.1875 54.632812 1.917969 56.234375 1.691406 C 57.835938 1.460938 59.441406 1.273438 61.054688 1.121094 C 62.664062 0.96875 64.28125 0.855469 65.894531 0.78125 C 67.511719 0.707031 69.128906 0.671875 70.75 0.679688 C 72.367188 0.683594 73.984375 0.726562 75.601562 0.808594 C 77.21875 0.886719 78.832031 1.007812 80.441406 1.167969 C 82.050781 1.328125 83.65625 1.527344 85.257812 1.761719 C 86.859375 2 88.453125 2.273438 90.042969 2.589844 C 91.628906 2.902344 93.207031 3.253906 94.78125 3.644531 C 96.351562 4.03125 97.910156 4.460938 99.460938 4.925781 C 101.011719 5.390625 102.550781 5.890625 104.074219 6.429688 C 105.601562 6.96875 107.113281 7.542969 108.613281 8.15625 C 110.109375 8.765625 111.59375 9.414062 113.0625 10.09375 C 114.527344 10.777344 115.980469 11.496094 117.410156 12.25 C 118.84375 13 120.257812 13.789062 121.652344 14.609375 C 123.046875 15.429688 124.421875 16.28125 125.777344 17.167969 C 127.128906 18.054688 128.460938 18.972656 129.773438 19.925781 C 131.082031 20.875 132.367188 21.859375 133.628906 22.871094 C 134.890625 23.882812 136.128906 24.925781 137.34375 25.996094 C 138.554688 27.070312 139.738281 28.171875 140.898438 29.300781 L 129.09375 41.417969 C 128.128906 40.480469 127.140625 39.5625 126.132812 38.671875 C 125.125 37.777344 124.09375 36.910156 123.042969 36.066406 C 121.992188 35.226562 120.921875 34.40625 119.832031 33.617188 C 118.742188 32.824219 117.632812 32.0625 116.507812 31.324219 C 115.378906 30.585938 114.234375 29.875 113.074219 29.191406 C 111.914062 28.507812 110.738281 27.855469 109.542969 27.226562 C 108.351562 26.601562 107.144531 26.003906 105.925781 25.433594 C 104.703125 24.867188 103.46875 24.328125 102.222656 23.820312 C 100.972656 23.3125 99.714844 22.832031 98.445312 22.382812 C 97.175781 21.9375 95.894531 21.519531 94.605469 21.132812 C 93.3125 20.746094 92.015625 20.390625 90.707031 20.066406 C 89.398438 19.742188 88.085938 19.449219 86.765625 19.1875 C 85.441406 18.925781 84.117188 18.699219 82.78125 18.5 C 81.449219 18.304688 80.113281 18.136719 78.773438 18.003906 C 77.433594 17.871094 76.089844 17.773438 74.746094 17.703125 C 73.398438 17.636719 72.054688 17.601562 70.707031 17.597656 C 69.359375 17.59375 68.011719 17.621094 66.667969 17.683594 C 65.320312 17.746094 63.980469 17.839844 62.636719 17.964844 C 61.296875 18.089844 59.960938 18.25 58.625 18.441406 C 57.292969 18.628906 55.964844 18.851562 54.640625 19.105469 C 53.320312 19.359375 52.003906 19.648438 50.695312 19.964844 C 49.382812 20.28125 48.082031 20.632812 46.792969 21.011719 C 45.5 21.390625 44.21875 21.804688 42.945312 22.246094 C 41.671875 22.6875 40.410156 23.160156 39.160156 23.660156 C 37.910156 24.164062 36.675781 24.695312 35.449219 25.257812 C 34.226562 25.820312 33.015625 26.410156 31.820312 27.03125 C 30.625 27.652344 29.445312 28.300781 28.28125 28.976562 C 27.117188 29.65625 25.96875 30.359375 24.839844 31.09375 C 23.707031 31.824219 22.59375 32.585938 21.5 33.371094 C 20.40625 34.15625 19.332031 34.96875 18.277344 35.804688 C 17.222656 36.644531 16.1875 37.503906 15.175781 38.390625 C 14.160156 39.28125 13.171875 40.191406 12.199219 41.125 Z M 0.457031 28.945312 " fill-opacity="1" fill-rule="nonzero"/></g><g fill="#000000" fill-opacity="1"><g transform="translate(12.419978, 32.648653)"><g><path d="M -1.859375 -5.15625 L -0.578125 -3.53125 L 1.75 -5.359375 L 2.203125 -4.78125 L -0.125 -2.953125 L 1.359375 -1.078125 L 0.703125 -0.546875 L -2.96875 -5.203125 L 0.3125 -7.796875 L 0.765625 -7.21875 Z M -1.859375 -5.15625 "/></g></g></g><g fill="#000000" fill-opacity="1"><g transform="translate(18.981162, 27.606658)"><g><path d="M 3.03125 -1.859375 C 2.53125 -1.546875 2.007812 -1.367188 1.46875 -1.328125 C 0.925781 -1.285156 0.414062 -1.382812 -0.0625 -1.625 C -0.539062 -1.875 -0.9375 -2.238281 -1.25 -2.71875 C -1.550781 -3.195312 -1.707031 -3.703125 -1.71875 -4.234375 C -1.738281 -4.773438 -1.617188 -5.285156 -1.359375 -5.765625 C -1.097656 -6.253906 -0.71875 -6.65625 -0.21875 -6.96875 C 0.289062 -7.289062 0.816406 -7.46875 1.359375 -7.5 C 1.898438 -7.53125 2.410156 -7.425781 2.890625 -7.1875 C 3.367188 -6.945312 3.757812 -6.582031 4.0625 -6.09375 C 4.375 -5.601562 4.535156 -5.09375 4.546875 -4.5625 C 4.566406 -4.03125 4.445312 -3.523438 4.1875 -3.046875 C 3.925781 -2.578125 3.539062 -2.179688 3.03125 -1.859375 Z M 2.625 -2.484375 C 3 -2.722656 3.28125 -3.019531 3.46875 -3.375 C 3.65625 -3.726562 3.738281 -4.101562 3.71875 -4.5 C 3.707031 -4.90625 3.585938 -5.285156 3.359375 -5.640625 C 3.128906 -6.003906 2.832031 -6.28125 2.46875 -6.46875 C 2.113281 -6.664062 1.738281 -6.753906 1.34375 -6.734375 C 0.945312 -6.710938 0.5625 -6.582031 0.1875 -6.34375 C -0.175781 -6.113281 -0.453125 -5.820312 -0.640625 -5.46875 C -0.835938 -5.113281 -0.925781 -4.734375 -0.90625 -4.328125 C -0.882812 -3.921875 -0.757812 -3.535156 -0.53125 -3.171875 C -0.300781 -2.816406 -0.0078125 -2.546875 0.34375 -2.359375 C 0.695312 -2.171875 1.070312 -2.085938 1.46875 -2.109375 C 1.875 -2.128906 2.257812 -2.253906 2.625 -2.484375 Z M 2.625 -2.484375 "/></g></g></g><g fill="#000000" fill-opacity="1"><g transform="translate(27.512486, 22.396927)"><g><path d="M 4.359375 -2.15625 L 2.390625 -3.234375 C 2.265625 -3.140625 2.160156 -3.070312 2.078125 -3.03125 L 0.75 -2.375 L 1.546875 -0.765625 L 0.796875 -0.390625 L -1.828125 -5.703125 L 0.25 -6.734375 C 0.9375 -7.078125 1.554688 -7.179688 2.109375 -7.046875 C 2.660156 -6.910156 3.078125 -6.550781 3.359375 -5.96875 C 3.566406 -5.5625 3.640625 -5.160156 3.578125 -4.765625 C 3.523438 -4.378906 3.347656 -4.03125 3.046875 -3.71875 L 5.1875 -2.5625 Z M 1.71875 -3.671875 C 2.195312 -3.910156 2.515625 -4.195312 2.671875 -4.53125 C 2.828125 -4.863281 2.804688 -5.21875 2.609375 -5.59375 C 2.421875 -5.976562 2.148438 -6.207031 1.796875 -6.28125 C 1.441406 -6.363281 1.023438 -6.285156 0.546875 -6.046875 L -0.75 -5.40625 L 0.421875 -3.03125 Z M 1.71875 -3.671875 "/></g></g></g><g fill="#000000" fill-opacity="1"><g transform="translate(35.753406, 18.528777)"><g/></g></g><g fill="#000000" fill-opacity="1"><g transform="translate(40.648096, 16.63448)"><g><path d="M 0.40625 -5.5625 L -1.53125 -4.953125 L -1.765625 -5.65625 L 2.90625 -7.140625 L 3.140625 -6.4375 L 1.203125 -5.8125 L 2.765625 -0.875 L 1.96875 -0.625 Z M 0.40625 -5.5625 "/></g></g></g><g fill="#000000" fill-opacity="1"><g transform="translate(48.197156, 14.35577)"><g><path d="M 4.75 -1.03125 L 3.109375 -2.53125 C 2.960938 -2.476562 2.84375 -2.441406 2.75 -2.421875 L 1.3125 -2.109375 L 1.6875 -0.359375 L 0.875 -0.1875 L -0.375 -5.96875 L 1.875 -6.453125 C 2.632812 -6.617188 3.265625 -6.570312 3.765625 -6.3125 C 4.273438 -6.050781 4.597656 -5.601562 4.734375 -4.96875 C 4.828125 -4.519531 4.796875 -4.113281 4.640625 -3.75 C 4.492188 -3.394531 4.234375 -3.097656 3.859375 -2.859375 L 5.65625 -1.21875 Z M 2.5625 -3.140625 C 3.09375 -3.253906 3.46875 -3.453125 3.6875 -3.734375 C 3.914062 -4.015625 3.988281 -4.363281 3.90625 -4.78125 C 3.8125 -5.207031 3.601562 -5.503906 3.28125 -5.671875 C 2.957031 -5.835938 2.53125 -5.863281 2 -5.75 L 0.59375 -5.4375 L 1.15625 -2.828125 Z M 2.5625 -3.140625 "/></g></g></g><g fill="#000000" fill-opacity="1"><g transform="translate(57.067951, 12.577289)"><g><path d="M 3.328125 -0.296875 C 2.535156 -0.210938 1.898438 -0.367188 1.421875 -0.765625 C 0.941406 -1.171875 0.65625 -1.796875 0.5625 -2.640625 L 0.203125 -5.984375 L 1.03125 -6.078125 L 1.390625 -2.765625 C 1.523438 -1.503906 2.148438 -0.929688 3.265625 -1.046875 C 3.796875 -1.109375 4.1875 -1.304688 4.4375 -1.640625 C 4.695312 -1.984375 4.789062 -2.476562 4.71875 -3.125 L 4.359375 -6.4375 L 5.1875 -6.53125 L 5.546875 -3.1875 C 5.640625 -2.34375 5.488281 -1.671875 5.09375 -1.171875 C 4.695312 -0.679688 4.109375 -0.390625 3.328125 -0.296875 Z M 3.328125 -0.296875 "/></g></g></g><g fill="#000000" fill-opacity="1"><g transform="translate(66.627265, 11.708851)"><g><path d="M 2.609375 0.03125 C 2.171875 0.0390625 1.742188 -0.015625 1.328125 -0.140625 C 0.910156 -0.273438 0.582031 -0.453125 0.34375 -0.671875 L 0.640625 -1.34375 C 0.867188 -1.144531 1.160156 -0.984375 1.515625 -0.859375 C 1.878906 -0.734375 2.242188 -0.675781 2.609375 -0.6875 C 3.109375 -0.6875 3.472656 -0.769531 3.703125 -0.9375 C 3.941406 -1.113281 4.0625 -1.335938 4.0625 -1.609375 C 4.0625 -1.816406 3.992188 -1.976562 3.859375 -2.09375 C 3.722656 -2.21875 3.554688 -2.3125 3.359375 -2.375 C 3.160156 -2.445312 2.882812 -2.523438 2.53125 -2.609375 C 2.082031 -2.710938 1.722656 -2.816406 1.453125 -2.921875 C 1.179688 -3.023438 0.945312 -3.1875 0.75 -3.40625 C 0.550781 -3.625 0.445312 -3.921875 0.4375 -4.296875 C 0.4375 -4.617188 0.515625 -4.90625 0.671875 -5.15625 C 0.835938 -5.414062 1.085938 -5.625 1.421875 -5.78125 C 1.765625 -5.9375 2.191406 -6.019531 2.703125 -6.03125 C 3.046875 -6.03125 3.382812 -5.984375 3.71875 -5.890625 C 4.0625 -5.804688 4.359375 -5.679688 4.609375 -5.515625 L 4.34375 -4.84375 C 4.09375 -5 3.820312 -5.113281 3.53125 -5.1875 C 3.25 -5.269531 2.972656 -5.3125 2.703125 -5.3125 C 2.222656 -5.300781 1.863281 -5.207031 1.625 -5.03125 C 1.394531 -4.851562 1.28125 -4.628906 1.28125 -4.359375 C 1.28125 -4.148438 1.347656 -3.984375 1.484375 -3.859375 C 1.628906 -3.734375 1.800781 -3.632812 2 -3.5625 C 2.195312 -3.5 2.46875 -3.425781 2.8125 -3.34375 C 3.257812 -3.238281 3.617188 -3.132812 3.890625 -3.03125 C 4.160156 -2.9375 4.394531 -2.773438 4.59375 -2.546875 C 4.789062 -2.328125 4.890625 -2.035156 4.890625 -1.671875 C 4.890625 -1.359375 4.804688 -1.070312 4.640625 -0.8125 C 4.484375 -0.550781 4.234375 -0.34375 3.890625 -0.1875 C 3.546875 -0.0390625 3.117188 0.03125 2.609375 0.03125 Z M 2.609375 0.03125 "/></g></g></g><g fill="#000000" fill-opacity="1"><g transform="translate(74.811581, 11.760681)"><g><path d="M 2.46875 -5.015625 L 0.4375 -5.171875 L 0.5 -5.90625 L 5.390625 -5.515625 L 5.328125 -4.78125 L 3.296875 -4.9375 L 2.890625 0.234375 L 2.0625 0.15625 Z M 2.46875 -5.015625 "/></g></g></g><g fill="#000000" fill-opacity="1"><g transform="translate(82.704625, 12.541429)"><g><path d="M 1.78125 -5.71875 L 2.625 -5.59375 L 1.71875 0.265625 L 0.875 0.140625 Z M 1.78125 -5.71875 "/></g></g></g><g fill="#000000" fill-opacity="1"><g transform="translate(88.199388, 13.431208)"><g><path d="M 7.21875 -4.328125 L 5.8125 1.421875 L 5.140625 1.25 L 2.734375 -3.890625 L 1.6875 0.40625 L 0.859375 0.21875 L 2.265625 -5.53125 L 2.9375 -5.375 L 5.359375 -0.234375 L 6.40625 -4.53125 Z M 7.21875 -4.328125 "/></g></g></g><g fill="#000000" fill-opacity="1"><g transform="translate(97.638812, 15.905308)"><g><path d="M 5.71875 -1.125 L 6.484375 -0.859375 L 5.703125 1.328125 C 5.347656 1.453125 4.960938 1.507812 4.546875 1.5 C 4.140625 1.488281 3.734375 1.410156 3.328125 1.265625 C 2.773438 1.066406 2.316406 0.765625 1.953125 0.359375 C 1.585938 -0.046875 1.347656 -0.507812 1.234375 -1.03125 C 1.128906 -1.5625 1.175781 -2.101562 1.375 -2.65625 C 1.570312 -3.1875 1.878906 -3.625 2.296875 -3.96875 C 2.710938 -4.3125 3.191406 -4.523438 3.734375 -4.609375 C 4.273438 -4.691406 4.828125 -4.628906 5.390625 -4.421875 C 5.847656 -4.265625 6.226562 -4.046875 6.53125 -3.765625 C 6.84375 -3.492188 7.078125 -3.171875 7.234375 -2.796875 L 6.5625 -2.484375 C 6.269531 -3.078125 5.804688 -3.488281 5.171875 -3.71875 C 4.753906 -3.863281 4.34375 -3.90625 3.9375 -3.84375 C 3.53125 -3.78125 3.171875 -3.617188 2.859375 -3.359375 C 2.546875 -3.097656 2.316406 -2.769531 2.171875 -2.375 C 2.035156 -1.96875 2.003906 -1.566406 2.078125 -1.171875 C 2.148438 -0.773438 2.320312 -0.421875 2.59375 -0.109375 C 2.863281 0.203125 3.207031 0.429688 3.625 0.578125 C 4.125 0.765625 4.601562 0.804688 5.0625 0.703125 Z M 5.71875 -1.125 "/></g></g></g><g fill="#000000" fill-opacity="1"><g transform="translate(106.48215, 19.317543)"><g/></g></g><g fill="#000000" fill-opacity="1"><g transform="translate(111.223555, 21.515415)"><g><path d="M 2.890625 1.6875 C 2.191406 1.289062 1.757812 0.789062 1.59375 0.1875 C 1.4375 -0.414062 1.566406 -1.085938 1.984375 -1.828125 L 3.625 -4.765625 L 4.359375 -4.34375 L 2.734375 -1.4375 C 2.117188 -0.320312 2.300781 0.503906 3.28125 1.046875 C 3.75 1.316406 4.179688 1.378906 4.578125 1.234375 C 4.984375 1.097656 5.34375 0.75 5.65625 0.1875 L 7.28125 -2.71875 L 8 -2.3125 L 6.359375 0.625 C 5.941406 1.363281 5.429688 1.820312 4.828125 2 C 4.222656 2.175781 3.578125 2.070312 2.890625 1.6875 Z M 2.890625 1.6875 "/></g></g></g><g fill="#000000" fill-opacity="1"><g transform="translate(119.507874, 26.363821)"><g><path d="M 2.109375 1.546875 C 1.742188 1.296875 1.429688 0.992188 1.171875 0.640625 C 0.910156 0.296875 0.742188 -0.03125 0.671875 -0.34375 L 1.296875 -0.734375 C 1.367188 -0.421875 1.515625 -0.113281 1.734375 0.1875 C 1.953125 0.5 2.210938 0.757812 2.515625 0.96875 C 2.921875 1.25 3.269531 1.382812 3.5625 1.375 C 3.851562 1.375 4.078125 1.265625 4.234375 1.046875 C 4.359375 0.878906 4.398438 0.707031 4.359375 0.53125 C 4.316406 0.351562 4.234375 0.175781 4.109375 0 C 3.992188 -0.164062 3.8125 -0.378906 3.5625 -0.640625 C 3.269531 -0.992188 3.039062 -1.289062 2.875 -1.53125 C 2.71875 -1.769531 2.617188 -2.035156 2.578125 -2.328125 C 2.546875 -2.628906 2.632812 -2.929688 2.84375 -3.234375 C 3.03125 -3.503906 3.265625 -3.691406 3.546875 -3.796875 C 3.835938 -3.910156 4.164062 -3.9375 4.53125 -3.875 C 4.894531 -3.8125 5.285156 -3.632812 5.703125 -3.34375 C 5.984375 -3.144531 6.234375 -2.910156 6.453125 -2.640625 C 6.679688 -2.367188 6.847656 -2.09375 6.953125 -1.8125 L 6.34375 -1.421875 C 6.226562 -1.691406 6.078125 -1.941406 5.890625 -2.171875 C 5.710938 -2.398438 5.515625 -2.59375 5.296875 -2.75 C 4.898438 -3.019531 4.550781 -3.148438 4.25 -3.140625 C 3.957031 -3.128906 3.734375 -3.015625 3.578125 -2.796875 C 3.460938 -2.628906 3.421875 -2.453125 3.453125 -2.265625 C 3.492188 -2.085938 3.570312 -1.910156 3.6875 -1.734375 C 3.8125 -1.566406 3.988281 -1.351562 4.21875 -1.09375 C 4.53125 -0.75 4.765625 -0.453125 4.921875 -0.203125 C 5.085938 0.0351562 5.1875 0.300781 5.21875 0.59375 C 5.25 0.882812 5.160156 1.179688 4.953125 1.484375 C 4.765625 1.734375 4.53125 1.914062 4.25 2.03125 C 3.96875 2.144531 3.644531 2.164062 3.28125 2.09375 C 2.914062 2.019531 2.523438 1.835938 2.109375 1.546875 Z M 2.109375 1.546875 "/></g></g></g><g fill="#000000" fill-opacity="1"><g transform="translate(126.150576, 31.204964)"><g/></g></g></g></g><g transform="matrix(1, 0, 0, 1, 40, 143)"><g clip-path="url(#086f4e5ec8)"><g clip-path="url(#8a3783ed17)"><path fill="#efe9e3" d="M 202.597656 1.050781 C 202.601562 2.703125 202.5625 4.355469 202.484375 6.003906 C 202.402344 7.65625 202.285156 9.304688 202.125 10.949219 C 201.964844 12.59375 201.765625 14.234375 201.523438 15.867188 C 201.28125 17.503906 201.003906 19.128906 200.683594 20.75 C 200.359375 22.371094 200 23.984375 199.601562 25.589844 C 199.203125 27.191406 198.761719 28.785156 198.285156 30.367188 C 197.804688 31.949219 197.289062 33.515625 196.734375 35.074219 C 196.179688 36.628906 195.585938 38.171875 194.957031 39.699219 C 194.324219 41.226562 193.65625 42.738281 192.949219 44.230469 C 192.246094 45.726562 191.503906 47.203125 190.726562 48.660156 C 189.949219 50.117188 189.136719 51.558594 188.289062 52.976562 C 187.4375 54.394531 186.558594 55.789062 185.640625 57.164062 C 184.722656 58.539062 183.773438 59.890625 182.789062 61.21875 C 181.804688 62.546875 180.789062 63.851562 179.742188 65.128906 C 178.695312 66.40625 177.617188 67.65625 176.507812 68.882812 C 175.398438 70.109375 174.261719 71.304688 173.09375 72.472656 C 171.925781 73.644531 170.730469 74.785156 169.507812 75.894531 C 168.28125 77.003906 167.03125 78.085938 165.757812 79.132812 C 164.480469 80.183594 163.175781 81.199219 161.851562 82.183594 C 160.523438 83.171875 159.171875 84.121094 157.800781 85.039062 C 156.425781 85.960938 155.03125 86.84375 153.613281 87.695312 C 152.199219 88.542969 150.761719 89.359375 149.304688 90.140625 C 147.847656 90.917969 146.371094 91.664062 144.878906 92.371094 C 143.382812 93.078125 141.875 93.746094 140.347656 94.378906 C 138.820312 95.011719 137.28125 95.609375 135.722656 96.164062 C 134.167969 96.722656 132.601562 97.242188 131.019531 97.722656 C 129.4375 98.199219 127.847656 98.640625 126.242188 99.042969 C 124.640625 99.445312 123.027344 99.808594 121.40625 100.132812 C 119.785156 100.453125 118.160156 100.738281 116.523438 100.980469 C 114.890625 101.222656 113.25 101.425781 111.605469 101.585938 C 109.960938 101.75 108.3125 101.871094 106.664062 101.953125 C 105.011719 102.035156 103.363281 102.074219 101.710938 102.074219 C 100.058594 102.074219 98.40625 102.035156 96.753906 101.953125 C 95.105469 101.871094 93.457031 101.75 91.8125 101.589844 C 90.167969 101.425781 88.527344 101.226562 86.894531 100.980469 C 85.257812 100.738281 83.632812 100.457031 82.011719 100.136719 C 80.390625 99.8125 78.777344 99.449219 77.175781 99.046875 C 75.570312 98.648438 73.980469 98.207031 72.398438 97.726562 C 70.816406 97.246094 69.25 96.726562 67.691406 96.171875 C 66.136719 95.613281 64.597656 95.019531 63.070312 94.386719 C 61.542969 93.753906 60.03125 93.085938 58.539062 92.378906 C 57.046875 91.671875 55.570312 90.925781 54.113281 90.148438 C 52.65625 89.367188 51.21875 88.554688 49.800781 87.703125 C 48.382812 86.855469 46.988281 85.96875 45.617188 85.050781 C 44.242188 84.132812 42.890625 83.179688 41.5625 82.195312 C 40.238281 81.210938 38.933594 80.195312 37.660156 79.144531 C 36.382812 78.097656 35.132812 77.015625 33.90625 75.90625 C 32.683594 74.796875 31.488281 73.65625 30.320312 72.488281 C 29.152344 71.320312 28.011719 70.121094 26.902344 68.898438 C 25.792969 67.671875 24.714844 66.421875 23.667969 65.140625 C 22.621094 63.863281 21.605469 62.5625 20.621094 61.234375 C 19.636719 59.90625 18.6875 58.554688 17.769531 57.179688 C 16.851562 55.804688 15.96875 54.410156 15.121094 52.992188 C 14.273438 51.574219 13.460938 50.136719 12.683594 48.675781 C 11.902344 47.21875 11.164062 45.742188 10.457031 44.25 C 9.75 42.753906 9.082031 41.242188 8.453125 39.714844 C 7.820312 38.1875 7.226562 36.648438 6.671875 35.089844 C 6.117188 33.535156 5.597656 31.964844 5.121094 30.382812 C 4.644531 28.800781 4.203125 27.210938 3.804688 25.605469 C 3.402344 24.003906 3.042969 22.390625 2.722656 20.769531 C 2.402344 19.148438 2.121094 17.519531 1.878906 15.886719 C 1.636719 14.25 1.4375 12.613281 1.277344 10.96875 C 1.117188 9.320312 0.996094 7.675781 0.917969 6.023438 C 0.839844 4.375 0.800781 2.722656 0.800781 1.070312 L 17.71875 1.085938 C 17.71875 2.460938 17.75 3.835938 17.816406 5.210938 C 17.882812 6.582031 17.984375 7.953125 18.117188 9.324219 C 18.25 10.691406 18.417969 12.058594 18.617188 13.417969 C 18.820312 14.777344 19.054688 16.132812 19.320312 17.480469 C 19.585938 18.832031 19.886719 20.171875 20.222656 21.507812 C 20.554688 22.839844 20.921875 24.167969 21.316406 25.484375 C 21.714844 26.800781 22.148438 28.105469 22.609375 29.402344 C 23.070312 30.695312 23.566406 31.980469 24.089844 33.25 C 24.617188 34.519531 25.171875 35.777344 25.761719 37.023438 C 26.347656 38.265625 26.964844 39.496094 27.613281 40.707031 C 28.257812 41.921875 28.9375 43.117188 29.644531 44.296875 C 30.347656 45.476562 31.085938 46.640625 31.847656 47.785156 C 32.609375 48.925781 33.402344 50.050781 34.222656 51.15625 C 35.039062 52.261719 35.882812 53.347656 36.757812 54.410156 C 37.628906 55.472656 38.527344 56.515625 39.449219 57.535156 C 40.371094 58.554688 41.320312 59.550781 42.292969 60.523438 C 43.265625 61.496094 44.257812 62.445312 45.277344 63.367188 C 46.296875 64.292969 47.335938 65.191406 48.402344 66.0625 C 49.464844 66.9375 50.546875 67.78125 51.652344 68.601562 C 52.753906 69.421875 53.878906 70.214844 55.023438 70.976562 C 56.164062 71.742188 57.328125 72.480469 58.507812 73.1875 C 59.6875 73.894531 60.882812 74.570312 62.09375 75.21875 C 63.308594 75.867188 64.535156 76.488281 65.777344 77.074219 C 67.023438 77.664062 68.277344 78.222656 69.550781 78.746094 C 70.820312 79.273438 72.101562 79.769531 73.398438 80.234375 C 74.691406 80.695312 75.996094 81.128906 77.3125 81.527344 C 78.628906 81.925781 79.953125 82.292969 81.289062 82.628906 C 82.621094 82.960938 83.964844 83.261719 85.3125 83.53125 C 86.664062 83.800781 88.015625 84.035156 89.378906 84.238281 C 90.738281 84.4375 92.101562 84.605469 93.472656 84.742188 C 94.839844 84.875 96.210938 84.976562 97.585938 85.042969 C 98.957031 85.113281 100.332031 85.144531 101.707031 85.144531 C 103.082031 85.144531 104.457031 85.113281 105.832031 85.042969 C 107.203125 84.976562 108.574219 84.875 109.945312 84.738281 C 111.3125 84.605469 112.679688 84.4375 114.039062 84.234375 C 115.398438 84.03125 116.753906 83.796875 118.101562 83.527344 C 119.449219 83.257812 120.792969 82.957031 122.125 82.625 C 123.460938 82.289062 124.785156 81.921875 126.101562 81.523438 C 127.417969 81.121094 128.722656 80.691406 130.015625 80.226562 C 131.3125 79.761719 132.59375 79.269531 133.863281 78.742188 C 135.136719 78.214844 136.390625 77.65625 137.636719 77.070312 C 138.878906 76.480469 140.105469 75.863281 141.320312 75.210938 C 142.53125 74.5625 143.726562 73.886719 144.90625 73.179688 C 146.085938 72.46875 147.246094 71.734375 148.390625 70.96875 C 149.535156 70.207031 150.65625 69.414062 151.761719 68.59375 C 152.867188 67.773438 153.949219 66.925781 155.011719 66.054688 C 156.074219 65.179688 157.113281 64.28125 158.132812 63.359375 C 159.152344 62.433594 160.148438 61.484375 161.117188 60.511719 C 162.089844 59.539062 163.039062 58.542969 163.960938 57.523438 C 164.882812 56.503906 165.78125 55.460938 166.652344 54.398438 C 167.523438 53.335938 168.371094 52.25 169.1875 51.144531 C 170.007812 50.039062 170.796875 48.914062 171.5625 47.769531 C 172.324219 46.625 173.058594 45.464844 173.765625 44.285156 C 174.472656 43.105469 175.148438 41.90625 175.796875 40.695312 C 176.441406 39.480469 177.058594 38.25 177.648438 37.007812 C 178.234375 35.765625 178.789062 34.507812 179.316406 33.234375 C 179.839844 31.964844 180.335938 30.683594 180.796875 29.386719 C 181.257812 28.089844 181.6875 26.785156 182.085938 25.46875 C 182.484375 24.152344 182.851562 22.828125 183.183594 21.492188 C 183.515625 20.15625 183.816406 18.816406 184.082031 17.46875 C 184.347656 16.117188 184.582031 14.761719 184.785156 13.402344 C 184.984375 12.042969 185.152344 10.675781 185.285156 9.308594 C 185.417969 7.941406 185.515625 6.566406 185.582031 5.195312 C 185.648438 3.820312 185.679688 2.445312 185.679688 1.070312 Z M 202.597656 1.050781 " fill-opacity="1" fill-rule="nonzero"/></g><g fill="#000000" fill-opacity="1"><g transform="translate(6.776061, 8.080481)"><g><path d="M 1.96875 4.484375 L 1.625 1.34375 L 0.09375 0.859375 L 0 -0.015625 L 6.171875 2.03125 L 6.265625 2.875 L 0.65625 6.171875 L 0.5625 5.28125 Z M 2.609375 4.109375 L 5.359375 2.546875 L 2.328125 1.5625 Z M 2.609375 4.109375 "/></g></g></g><g fill="#000000" fill-opacity="1"><g transform="translate(7.953139, 17.629098)"><g><path d="M 7.046875 4.625 L 1.25 5.859375 L 1.109375 5.171875 L 4.6875 0.78125 L 0.359375 1.703125 L 0.1875 0.875 L 5.984375 -0.359375 L 6.125 0.3125 L 2.546875 4.71875 L 6.875 3.796875 Z M 7.046875 4.625 "/></g></g></g><g fill="#000000" fill-opacity="1"><g transform="translate(10.290063, 27.667675)"><g><path d="M 5.90625 -1.015625 L 6.6875 1.359375 C 6.882812 1.953125 6.941406 2.515625 6.859375 3.046875 C 6.773438 3.585938 6.566406 4.054688 6.234375 4.453125 C 5.898438 4.859375 5.453125 5.148438 4.890625 5.328125 C 4.335938 5.515625 3.804688 5.546875 3.296875 5.421875 C 2.785156 5.304688 2.332031 5.054688 1.9375 4.671875 C 1.550781 4.296875 1.257812 3.8125 1.0625 3.21875 L 0.28125 0.84375 Z M 1.75 2.9375 C 1.90625 3.394531 2.128906 3.765625 2.421875 4.046875 C 2.710938 4.335938 3.046875 4.519531 3.421875 4.59375 C 3.796875 4.675781 4.191406 4.644531 4.609375 4.5 C 5.023438 4.363281 5.363281 4.148438 5.625 3.859375 C 5.882812 3.578125 6.046875 3.234375 6.109375 2.828125 C 6.171875 2.429688 6.125 2.003906 5.96875 1.546875 L 5.46875 0.015625 L 1.25 1.40625 Z M 1.75 2.9375 "/></g></g></g><g fill="#000000" fill-opacity="1"><g transform="translate(13.776167, 37.420741)"><g/></g></g><g fill="#000000" fill-opacity="1"><g transform="translate(16.051405, 42.566115)"><g><path d="M 1.140625 2.34375 C 0.941406 1.957031 0.804688 1.546875 0.734375 1.109375 C 0.671875 0.679688 0.675781 0.3125 0.75 0 L 1.484375 -0.046875 C 1.421875 0.265625 1.410156 0.601562 1.453125 0.96875 C 1.503906 1.34375 1.613281 1.691406 1.78125 2.015625 C 2.007812 2.460938 2.253906 2.753906 2.515625 2.890625 C 2.773438 3.023438 3.023438 3.03125 3.265625 2.90625 C 3.441406 2.8125 3.554688 2.675781 3.609375 2.5 C 3.671875 2.320312 3.679688 2.128906 3.640625 1.921875 C 3.609375 1.722656 3.550781 1.445312 3.46875 1.09375 C 3.363281 0.632812 3.296875 0.265625 3.265625 -0.015625 C 3.234375 -0.304688 3.269531 -0.585938 3.375 -0.859375 C 3.476562 -1.140625 3.695312 -1.367188 4.03125 -1.546875 C 4.320312 -1.691406 4.613281 -1.75 4.90625 -1.71875 C 5.207031 -1.6875 5.503906 -1.554688 5.796875 -1.328125 C 6.097656 -1.097656 6.367188 -0.757812 6.609375 -0.3125 C 6.765625 -0.0078125 6.878906 0.3125 6.953125 0.65625 C 7.023438 1 7.046875 1.320312 7.015625 1.625 L 6.28125 1.671875 C 6.300781 1.390625 6.285156 1.101562 6.234375 0.8125 C 6.179688 0.519531 6.09375 0.253906 5.96875 0.015625 C 5.738281 -0.410156 5.488281 -0.6875 5.21875 -0.8125 C 4.957031 -0.945312 4.707031 -0.953125 4.46875 -0.828125 C 4.28125 -0.734375 4.160156 -0.59375 4.109375 -0.40625 C 4.066406 -0.226562 4.054688 -0.0351562 4.078125 0.171875 C 4.109375 0.378906 4.164062 0.65625 4.25 1 C 4.363281 1.445312 4.4375 1.8125 4.46875 2.09375 C 4.507812 2.382812 4.472656 2.664062 4.359375 2.9375 C 4.242188 3.21875 4.023438 3.441406 3.703125 3.609375 C 3.429688 3.753906 3.140625 3.8125 2.828125 3.78125 C 2.515625 3.75 2.210938 3.613281 1.921875 3.375 C 1.640625 3.144531 1.378906 2.800781 1.140625 2.34375 Z M 1.140625 2.34375 "/></g></g></g><g fill="#000000" fill-opacity="1"><g transform="translate(20.163615, 50.193724)"><g><path d="M 1.78125 2.828125 C 1.34375 2.171875 1.191406 1.535156 1.328125 0.921875 C 1.460938 0.304688 1.882812 -0.234375 2.59375 -0.703125 L 5.40625 -2.53125 L 5.875 -1.828125 L 3.09375 -0.015625 C 2.03125 0.679688 1.800781 1.5 2.40625 2.4375 C 2.707031 2.894531 3.066406 3.15625 3.484375 3.21875 C 3.898438 3.289062 4.378906 3.148438 4.921875 2.796875 L 7.703125 0.984375 L 8.15625 1.671875 L 5.34375 3.5 C 4.632812 3.96875 3.96875 4.140625 3.34375 4.015625 C 2.726562 3.890625 2.207031 3.492188 1.78125 2.828125 Z M 1.78125 2.828125 "/></g></g></g><g fill="#000000" fill-opacity="1"><g transform="translate(25.84781, 58.55958)"><g><path d="M 6.609375 -1.25 C 7.097656 -0.644531 7.335938 -0.0625 7.328125 0.5 C 7.328125 1.070312 7.078125 1.5625 6.578125 1.96875 C 6.078125 2.375 5.546875 2.523438 4.984375 2.421875 C 4.421875 2.316406 3.894531 1.960938 3.40625 1.359375 L 2.484375 0.21875 L 1.09375 1.34375 L 0.5625 0.6875 L 5.15625 -3.046875 Z M 3.96875 0.875 C 4.3125 1.289062 4.660156 1.535156 5.015625 1.609375 C 5.367188 1.679688 5.710938 1.582031 6.046875 1.3125 C 6.378906 1.050781 6.546875 0.738281 6.546875 0.375 C 6.546875 0.0078125 6.375 -0.378906 6.03125 -0.796875 L 5.125 -1.921875 L 3.0625 -0.25 Z M 3.96875 0.875 "/></g></g></g><g fill="#000000" fill-opacity="1"><g transform="translate(31.976799, 65.846876)"><g><path d="M 6.453125 -1.890625 C 7.003906 -1.347656 7.300781 -0.789062 7.34375 -0.21875 C 7.394531 0.34375 7.191406 0.851562 6.734375 1.3125 C 6.273438 1.769531 5.765625 1.96875 5.203125 1.90625 C 4.640625 1.851562 4.082031 1.554688 3.53125 1.015625 L 2.5 -0.03125 L 1.21875 1.234375 L 0.625 0.625 L 4.828125 -3.546875 Z M 4.03125 0.46875 C 4.414062 0.851562 4.785156 1.0625 5.140625 1.09375 C 5.503906 1.132812 5.835938 1.003906 6.140625 0.703125 C 6.441406 0.398438 6.578125 0.0703125 6.546875 -0.28125 C 6.515625 -0.644531 6.304688 -1.019531 5.921875 -1.40625 L 4.90625 -2.421875 L 3.015625 -0.546875 Z M 4.03125 0.46875 "/></g></g></g><g fill="#000000" fill-opacity="1"><g transform="translate(38.804245, 72.505977)"><g><path d="M 2.71875 2.296875 C 2.257812 1.921875 1.925781 1.476562 1.71875 0.96875 C 1.507812 0.46875 1.441406 -0.046875 1.515625 -0.578125 C 1.597656 -1.117188 1.820312 -1.609375 2.1875 -2.046875 C 2.539062 -2.484375 2.96875 -2.789062 3.46875 -2.96875 C 3.976562 -3.15625 4.503906 -3.203125 5.046875 -3.109375 C 5.597656 -3.015625 6.101562 -2.78125 6.5625 -2.40625 C 7.019531 -2.03125 7.347656 -1.585938 7.546875 -1.078125 C 7.742188 -0.566406 7.804688 -0.0507812 7.734375 0.46875 C 7.660156 1 7.441406 1.488281 7.078125 1.9375 C 6.710938 2.382812 6.273438 2.695312 5.765625 2.875 C 5.265625 3.0625 4.742188 3.101562 4.203125 3 C 3.671875 2.90625 3.175781 2.671875 2.71875 2.296875 Z M 3.203125 1.71875 C 3.535156 2 3.898438 2.171875 4.296875 2.234375 C 4.691406 2.296875 5.078125 2.253906 5.453125 2.109375 C 5.828125 1.960938 6.148438 1.726562 6.421875 1.40625 C 6.691406 1.070312 6.859375 0.707031 6.921875 0.3125 C 6.984375 -0.0820312 6.941406 -0.460938 6.796875 -0.828125 C 6.648438 -1.203125 6.410156 -1.53125 6.078125 -1.8125 C 5.734375 -2.09375 5.363281 -2.265625 4.96875 -2.328125 C 4.570312 -2.398438 4.1875 -2.363281 3.8125 -2.21875 C 3.4375 -2.070312 3.113281 -1.832031 2.84375 -1.5 C 2.570312 -1.175781 2.40625 -0.816406 2.34375 -0.421875 C 2.28125 -0.0234375 2.320312 0.359375 2.46875 0.734375 C 2.613281 1.109375 2.859375 1.4375 3.203125 1.71875 Z M 3.203125 1.71875 "/></g></g></g><g fill="#000000" fill-opacity="1"><g transform="translate(47.100522, 78.997543)"><g><path d="M 4.078125 2.65625 L 4 0.421875 C 3.851562 0.359375 3.742188 0.300781 3.671875 0.25 L 2.4375 -0.546875 L 1.453125 0.953125 L 0.75 0.484375 L 3.984375 -4.46875 L 5.921875 -3.203125 C 6.566406 -2.785156 6.972656 -2.304688 7.140625 -1.765625 C 7.304688 -1.222656 7.210938 -0.679688 6.859375 -0.140625 C 6.609375 0.242188 6.300781 0.507812 5.9375 0.65625 C 5.570312 0.8125 5.175781 0.835938 4.75 0.734375 L 4.84375 3.15625 Z M 4.03125 -0.390625 C 4.488281 -0.0976562 4.898438 0.03125 5.265625 0 C 5.628906 -0.0390625 5.925781 -0.238281 6.15625 -0.59375 C 6.382812 -0.945312 6.441406 -1.296875 6.328125 -1.640625 C 6.222656 -1.992188 5.941406 -2.316406 5.484375 -2.609375 L 4.28125 -3.390625 L 2.828125 -1.171875 Z M 4.03125 -0.390625 "/></g></g></g><g fill="#000000" fill-opacity="1"><g transform="translate(55.199821, 84.054909)"><g><path d="M 4.234375 -3.640625 L 2.4375 -4.578125 L 2.78125 -5.234375 L 7.125 -2.953125 L 6.78125 -2.296875 L 4.984375 -3.25 L 2.578125 1.34375 L 1.828125 0.953125 Z M 4.234375 -3.640625 "/></g></g></g><g fill="#000000" fill-opacity="1"><g transform="translate(62.63858, 87.768449)"><g><path d="M 3.15625 -5.078125 L 3.9375 -4.75 L 1.59375 0.6875 L 0.8125 0.359375 Z M 3.15625 -5.078125 "/></g></g></g><g fill="#000000" fill-opacity="1"><g transform="translate(68.167024, 90.101615)"><g><path d="M 7.546875 -3.71875 L 5.671875 1.890625 L 5.015625 1.6875 L 3.046875 -3.640625 L 1.640625 0.546875 L 0.84375 0.28125 L 2.71875 -5.328125 L 3.375 -5.109375 L 5.34375 0.203125 L 6.75 -3.984375 Z M 7.546875 -3.71875 "/></g></g></g><g fill="#000000" fill-opacity="1"><g transform="translate(77.994381, 93.18628)"><g><path d="M 5.53125 -1.859375 L 6.3125 -1.6875 L 5.8125 0.578125 C 5.488281 0.742188 5.117188 0.847656 4.703125 0.890625 C 4.296875 0.941406 3.882812 0.921875 3.46875 0.828125 C 2.882812 0.703125 2.382812 0.457031 1.96875 0.09375 C 1.5625 -0.257812 1.269531 -0.6875 1.09375 -1.1875 C 0.925781 -1.695312 0.90625 -2.238281 1.03125 -2.8125 C 1.15625 -3.363281 1.398438 -3.835938 1.765625 -4.234375 C 2.140625 -4.628906 2.585938 -4.898438 3.109375 -5.046875 C 3.628906 -5.203125 4.1875 -5.21875 4.78125 -5.09375 C 5.25 -4.988281 5.65625 -4.816406 6 -4.578125 C 6.34375 -4.347656 6.613281 -4.054688 6.8125 -3.703125 L 6.1875 -3.3125 C 5.820312 -3.863281 5.3125 -4.207031 4.65625 -4.34375 C 4.21875 -4.445312 3.800781 -4.4375 3.40625 -4.3125 C 3.007812 -4.195312 2.675781 -3.992188 2.40625 -3.703125 C 2.132812 -3.410156 1.953125 -3.054688 1.859375 -2.640625 C 1.765625 -2.222656 1.78125 -1.816406 1.90625 -1.421875 C 2.03125 -1.035156 2.242188 -0.707031 2.546875 -0.4375 C 2.859375 -0.175781 3.234375 0.00390625 3.671875 0.109375 C 4.179688 0.210938 4.664062 0.191406 5.125 0.046875 Z M 5.53125 -1.859375 "/></g></g></g><g fill="#000000" fill-opacity="1"><g transform="translate(87.705061, 95.087935)"><g/></g></g><g fill="#000000" fill-opacity="1"><g transform="translate(93.288388, 95.772806)"><g><path d="M 2.609375 0.21875 C 2.171875 0.1875 1.742188 0.09375 1.328125 -0.0625 C 0.921875 -0.21875 0.609375 -0.414062 0.390625 -0.65625 L 0.734375 -1.3125 C 0.953125 -1.082031 1.234375 -0.894531 1.578125 -0.75 C 1.921875 -0.601562 2.273438 -0.519531 2.640625 -0.5 C 3.140625 -0.46875 3.515625 -0.53125 3.765625 -0.6875 C 4.015625 -0.84375 4.148438 -1.054688 4.171875 -1.328125 C 4.179688 -1.535156 4.125 -1.703125 4 -1.828125 C 3.882812 -1.960938 3.726562 -2.066406 3.53125 -2.140625 C 3.332031 -2.222656 3.0625 -2.316406 2.71875 -2.421875 C 2.269531 -2.566406 1.914062 -2.695312 1.65625 -2.8125 C 1.394531 -2.9375 1.171875 -3.113281 0.984375 -3.34375 C 0.796875 -3.582031 0.710938 -3.890625 0.734375 -4.265625 C 0.753906 -4.578125 0.851562 -4.851562 1.03125 -5.09375 C 1.21875 -5.332031 1.484375 -5.519531 1.828125 -5.65625 C 2.179688 -5.789062 2.613281 -5.84375 3.125 -5.8125 C 3.46875 -5.800781 3.804688 -5.738281 4.140625 -5.625 C 4.472656 -5.507812 4.753906 -5.359375 4.984375 -5.171875 L 4.671875 -4.515625 C 4.429688 -4.691406 4.171875 -4.828125 3.890625 -4.921875 C 3.617188 -5.023438 3.347656 -5.082031 3.078125 -5.09375 C 2.597656 -5.125 2.234375 -5.054688 1.984375 -4.890625 C 1.734375 -4.734375 1.601562 -4.523438 1.59375 -4.265625 C 1.570312 -4.054688 1.625 -3.882812 1.75 -3.75 C 1.882812 -3.613281 2.046875 -3.503906 2.234375 -3.421875 C 2.429688 -3.335938 2.703125 -3.242188 3.046875 -3.140625 C 3.484375 -3.015625 3.832031 -2.890625 4.09375 -2.765625 C 4.363281 -2.648438 4.582031 -2.472656 4.75 -2.234375 C 4.925781 -1.992188 5.003906 -1.691406 4.984375 -1.328125 C 4.960938 -1.015625 4.863281 -0.734375 4.6875 -0.484375 C 4.507812 -0.234375 4.242188 -0.046875 3.890625 0.078125 C 3.546875 0.203125 3.117188 0.25 2.609375 0.21875 Z M 2.609375 0.21875 "/></g></g></g><g fill="#000000" fill-opacity="1"><g transform="translate(101.937367, 96.145416)"><g><path d="M 4.859375 -0.171875 L 3.515625 -1.953125 C 3.359375 -1.929688 3.234375 -1.914062 3.140625 -1.90625 L 1.671875 -1.859375 L 1.734375 -0.0625 L 0.890625 -0.03125 L 0.671875 -5.953125 L 2.984375 -6.03125 C 3.753906 -6.0625 4.363281 -5.898438 4.8125 -5.546875 C 5.269531 -5.203125 5.507812 -4.707031 5.53125 -4.0625 C 5.550781 -3.601562 5.453125 -3.207031 5.234375 -2.875 C 5.023438 -2.550781 4.710938 -2.304688 4.296875 -2.140625 L 5.78125 -0.203125 Z M 3.078125 -2.640625 C 3.617188 -2.660156 4.023438 -2.789062 4.296875 -3.03125 C 4.578125 -3.269531 4.707031 -3.601562 4.6875 -4.03125 C 4.675781 -4.457031 4.523438 -4.78125 4.234375 -5 C 3.941406 -5.21875 3.523438 -5.316406 2.984375 -5.296875 L 1.546875 -5.25 L 1.640625 -2.59375 Z M 3.078125 -2.640625 "/></g></g></g><g fill="#000000" fill-opacity="1"><g transform="translate(111.435399, 95.589849)"><g><path d="M 0.1875 -5.984375 L 1.015625 -6.078125 L 1.71875 -0.203125 L 0.890625 -0.109375 Z M 0.1875 -5.984375 "/></g></g></g><g fill="#000000" fill-opacity="1"><g transform="translate(117.314429, 94.786574)"><g/></g></g><g fill="#000000" fill-opacity="1"><g transform="translate(122.850612, 93.727524)"><g><path d="M 4.3125 -7.25 L 3.328125 -0.875 L 2.515625 -0.65625 L -1.53125 -5.71875 L -0.640625 -5.953125 L 2.6875 -1.8125 L 3.5 -7.046875 Z M 4.3125 -7.25 "/></g></g></g><g fill="#000000" fill-opacity="1"><g transform="translate(131.932869, 91.160482)"><g><path d="M 3.859375 -3.03125 L 0.90625 -1.921875 L 0.8125 -0.296875 L -0.015625 0 L 0.421875 -6.484375 L 1.21875 -6.78125 L 5.8125 -2.171875 L 4.96875 -1.859375 Z M 3.34375 -3.546875 L 1.109375 -5.8125 L 0.953125 -2.65625 Z M 3.34375 -3.546875 "/></g></g></g><g fill="#000000" fill-opacity="1"><g transform="translate(140.870517, 87.633063)"><g><path d="M 4.359375 -2.15625 L 2.390625 -3.21875 C 2.265625 -3.132812 2.160156 -3.070312 2.078125 -3.03125 L 0.765625 -2.375 L 1.5625 -0.765625 L 0.796875 -0.390625 L -1.828125 -5.703125 L 0.25 -6.734375 C 0.9375 -7.078125 1.554688 -7.179688 2.109375 -7.046875 C 2.660156 -6.910156 3.082031 -6.550781 3.375 -5.96875 C 3.570312 -5.5625 3.644531 -5.160156 3.59375 -4.765625 C 3.539062 -4.378906 3.359375 -4.03125 3.046875 -3.71875 L 5.1875 -2.5625 Z M 1.71875 -3.671875 C 2.207031 -3.910156 2.523438 -4.195312 2.671875 -4.53125 C 2.828125 -4.863281 2.8125 -5.21875 2.625 -5.59375 C 2.425781 -5.976562 2.148438 -6.210938 1.796875 -6.296875 C 1.453125 -6.378906 1.035156 -6.300781 0.546875 -6.0625 L -0.734375 -5.421875 L 0.4375 -3.03125 Z M 1.71875 -3.671875 "/></g></g></g><g fill="#000000" fill-opacity="1"><g transform="translate(149.350615, 83.235192)"><g><path d="M 2.25 -1.328125 C 1.875 -1.097656 1.472656 -0.929688 1.046875 -0.828125 C 0.617188 -0.722656 0.25 -0.703125 -0.0625 -0.765625 L -0.140625 -1.484375 C 0.148438 -1.429688 0.476562 -1.445312 0.84375 -1.53125 C 1.21875 -1.613281 1.5625 -1.75 1.875 -1.9375 C 2.300781 -2.195312 2.570312 -2.457031 2.6875 -2.71875 C 2.800781 -2.988281 2.785156 -3.238281 2.640625 -3.46875 C 2.535156 -3.644531 2.394531 -3.75 2.21875 -3.78125 C 2.039062 -3.820312 1.847656 -3.816406 1.640625 -3.765625 C 1.429688 -3.722656 1.15625 -3.644531 0.8125 -3.53125 C 0.375 -3.40625 0.015625 -3.3125 -0.265625 -3.25 C -0.546875 -3.195312 -0.832031 -3.210938 -1.125 -3.296875 C -1.414062 -3.378906 -1.660156 -3.582031 -1.859375 -3.90625 C -2.023438 -4.175781 -2.097656 -4.460938 -2.078125 -4.765625 C -2.066406 -5.066406 -1.957031 -5.367188 -1.75 -5.671875 C -1.550781 -5.984375 -1.238281 -6.273438 -0.8125 -6.546875 C -0.507812 -6.734375 -0.191406 -6.875 0.140625 -6.96875 C 0.472656 -7.070312 0.789062 -7.117188 1.09375 -7.109375 L 1.203125 -6.390625 C 0.898438 -6.390625 0.609375 -6.347656 0.328125 -6.265625 C 0.0546875 -6.191406 -0.195312 -6.082031 -0.4375 -5.9375 C -0.84375 -5.6875 -1.097656 -5.421875 -1.203125 -5.140625 C -1.316406 -4.867188 -1.300781 -4.617188 -1.15625 -4.390625 C -1.050781 -4.210938 -0.90625 -4.101562 -0.71875 -4.0625 C -0.539062 -4.03125 -0.347656 -4.035156 -0.140625 -4.078125 C 0.0664062 -4.117188 0.335938 -4.195312 0.671875 -4.3125 C 1.109375 -4.46875 1.46875 -4.570312 1.75 -4.625 C 2.03125 -4.675781 2.3125 -4.65625 2.59375 -4.5625 C 2.882812 -4.46875 3.125 -4.265625 3.3125 -3.953125 C 3.476562 -3.691406 3.554688 -3.40625 3.546875 -3.09375 C 3.546875 -2.789062 3.4375 -2.488281 3.21875 -2.1875 C 3.007812 -1.882812 2.6875 -1.597656 2.25 -1.328125 Z M 2.25 -1.328125 "/></g></g></g><g fill="#000000" fill-opacity="1"><g transform="translate(156.649139, 78.560061)"><g><path d="M 1.140625 -8.34375 L 4.75 -3.640625 L 4.078125 -3.125 L 2.46875 -5.21875 L -0.234375 -3.15625 L 1.375 -1.0625 L 0.703125 -0.546875 L -2.90625 -5.25 L -2.234375 -5.765625 L -0.671875 -3.734375 L 2.03125 -5.796875 L 0.46875 -7.828125 Z M 1.140625 -8.34375 "/></g></g></g><g fill="#000000" fill-opacity="1"><g transform="translate(164.695584, 72.138513)"><g><path d="M 2.375 -4.296875 L 0.078125 -2.125 L 0.625 -0.59375 L -0.015625 0.015625 L -2.140625 -6.140625 L -1.53125 -6.71875 L 4.5 -4.265625 L 3.859375 -3.65625 Z M 1.6875 -4.578125 L -1.234375 -5.796875 L -0.171875 -2.8125 Z M 1.6875 -4.578125 "/></g></g></g><g fill="#000000" fill-opacity="1"><g transform="translate(171.476136, 65.409809)"><g/></g></g><g fill="#000000" fill-opacity="1"><g transform="translate(175.204883, 61.174724)"><g><path d="M 0.5 -5.734375 C 0.78125 -5.960938 1.082031 -6.078125 1.40625 -6.078125 C 1.726562 -6.078125 2.046875 -5.960938 2.359375 -5.734375 C 2.765625 -5.421875 2.957031 -5.023438 2.9375 -4.546875 C 2.925781 -4.078125 2.695312 -3.546875 2.25 -2.953125 L 0.546875 -0.703125 L -4.171875 -4.28125 L -2.578125 -6.40625 C -2.160156 -6.9375 -1.726562 -7.269531 -1.28125 -7.40625 C -0.84375 -7.539062 -0.4375 -7.460938 -0.0625 -7.171875 C 0.1875 -6.984375 0.351562 -6.765625 0.4375 -6.515625 C 0.53125 -6.265625 0.550781 -6.003906 0.5 -5.734375 Z M -3.125 -4.546875 L -1.609375 -3.40625 L -0.5625 -4.796875 C -0.289062 -5.140625 -0.148438 -5.453125 -0.140625 -5.734375 C -0.128906 -6.015625 -0.25 -6.253906 -0.5 -6.453125 C -0.75 -6.640625 -1.003906 -6.6875 -1.265625 -6.59375 C -1.535156 -6.5 -1.804688 -6.28125 -2.078125 -5.9375 Z M 1.6875 -3.359375 C 1.976562 -3.734375 2.132812 -4.0625 2.15625 -4.34375 C 2.175781 -4.632812 2.050781 -4.882812 1.78125 -5.09375 C 1.257812 -5.488281 0.707031 -5.304688 0.125 -4.546875 L -1.0625 -2.984375 L 0.5 -1.796875 Z M 1.6875 -3.359375 "/></g></g></g><g fill="#000000" fill-opacity="1"><g transform="translate(180.998259, 53.251415)"><g><path d="M 2.09375 -4.8125 L 2.71875 -4.421875 L 0.46875 -0.765625 L -4.578125 -3.859375 L -2.390625 -7.421875 L -1.765625 -7.046875 L -3.515625 -4.203125 L -1.96875 -3.25 L -0.40625 -5.765625 L 0.203125 -5.390625 L -1.359375 -2.875 L 0.28125 -1.875 Z M 2.09375 -4.8125 "/></g></g></g><g fill="#000000" fill-opacity="1"><g transform="translate(185.618284, 45.437934)"><g><path d="M 0.71875 -4.859375 L -0.671875 -2.015625 L 0.375 -0.765625 L 0 0.015625 L -4.15625 -5 L -3.796875 -5.75 L 2.71875 -5.578125 L 2.328125 -4.78125 Z M -0.03125 -4.875 L -3.1875 -5 L -1.140625 -2.5625 Z M -0.03125 -4.875 "/></g></g></g><g fill="#000000" fill-opacity="1"><g transform="translate(189.674439, 36.716913)"><g><path d="M 1.203125 -3.125 C 0.929688 -2.382812 0.507812 -1.882812 -0.0625 -1.625 C -0.632812 -1.363281 -1.320312 -1.378906 -2.125 -1.671875 L -5.28125 -2.828125 L -4.984375 -3.609375 L -1.859375 -2.46875 C -0.660156 -2.03125 0.125 -2.335938 0.5 -3.390625 C 0.6875 -3.898438 0.679688 -4.34375 0.484375 -4.71875 C 0.285156 -5.101562 -0.113281 -5.40625 -0.71875 -5.625 L -3.84375 -6.765625 L -3.5625 -7.53125 L -0.40625 -6.375 C 0.394531 -6.082031 0.929688 -5.65625 1.203125 -5.09375 C 1.472656 -4.53125 1.472656 -3.875 1.203125 -3.125 Z M 1.203125 -3.125 "/></g></g></g><g fill="#000000" fill-opacity="1"><g transform="translate(192.929065, 27.159261)"><g><path d="M -4.515625 -3.296875 L -5.03125 -1.328125 L -5.734375 -1.5 L -4.5 -6.25 L -3.796875 -6.078125 L -4.3125 -4.109375 L 0.71875 -2.8125 L 0.515625 -2 Z M -4.515625 -3.296875 "/></g></g></g><g fill="#000000" fill-opacity="1"><g transform="translate(194.869831, 19.031676)"><g><path d="M -1.515625 -3.4375 L 0.5 -3.109375 L 0.375 -2.296875 L -1.65625 -2.625 L -5.84375 -0.921875 L -5.703125 -1.8125 L -2.328125 -3.1875 L -5.09375 -5.5625 L -4.953125 -6.390625 Z M -1.515625 -3.4375 "/></g></g></g><g fill="#000000" fill-opacity="1"><g transform="translate(196.099775, 10.296276)"><g/></g></g></g></g><g fill="#000000" fill-opacity="1"><g transform="translate(105.433404, 175.444804)"><g><path d="M 0 -24.390625 L 0 -24.734375 L 4.296875 -24.734375 C 5.085938 -24.734375 5.722656 -24.4375 6.203125 -23.84375 C 6.679688 -23.25 7.023438 -22.613281 7.234375 -21.9375 C 7.703125 -20.445312 8.132812 -19.039062 8.53125 -17.71875 C 8.925781 -16.40625 9.3125 -15.109375 9.6875 -13.828125 C 10.070312 -12.546875 10.484375 -11.203125 10.921875 -9.796875 C 11.367188 -8.390625 11.863281 -6.835938 12.40625 -5.140625 C 12.726562 -4.160156 13.101562 -3.425781 13.53125 -2.9375 C 13.96875 -2.445312 14.441406 -2.164062 14.953125 -2.09375 C 15.835938 -4.882812 16.65625 -7.476562 17.40625 -9.875 C 18.164062 -12.28125 18.875 -14.59375 19.53125 -16.8125 C 19.738281 -17.507812 19.90625 -18.285156 20.03125 -19.140625 C 20.164062 -20.003906 20.191406 -20.835938 20.109375 -21.640625 C 20.023438 -22.441406 19.753906 -23.097656 19.296875 -23.609375 C 18.847656 -24.128906 18.132812 -24.390625 17.15625 -24.390625 L 16.390625 -24.390625 L 16.390625 -24.734375 L 25.578125 -24.734375 L 25.578125 -24.390625 L 24.984375 -24.390625 C 24.378906 -24.390625 23.816406 -24.140625 23.296875 -23.640625 C 22.785156 -23.140625 22.328125 -22.515625 21.921875 -21.765625 C 21.515625 -21.015625 21.164062 -20.257812 20.875 -19.5 C 20.582031 -18.75 20.351562 -18.109375 20.1875 -17.578125 C 19.332031 -14.828125 18.457031 -11.984375 17.5625 -9.046875 C 16.664062 -6.109375 15.644531 -2.859375 14.5 0.703125 C 14.332031 1.140625 14.097656 1.78125 13.796875 2.625 C 13.492188 3.476562 13.125 4.421875 12.6875 5.453125 C 12.257812 6.492188 11.796875 7.546875 11.296875 8.609375 C 10.796875 9.671875 10.269531 10.644531 9.71875 11.53125 C 9.175781 12.414062 8.628906 13.128906 8.078125 13.671875 C 7.535156 14.222656 7 14.5 6.46875 14.5 L 1.75 14.5 L 1.75 14.15625 C 2.613281 14.15625 3.523438 13.875 4.484375 13.3125 C 5.453125 12.75 6.429688 11.992188 7.421875 11.046875 C 8.410156 10.109375 9.34375 9.054688 10.21875 7.890625 C 11.09375 6.734375 11.867188 5.53125 12.546875 4.28125 C 13.222656 3.03125 13.734375 1.835938 14.078125 0.703125 C 13.773438 0.671875 13.347656 0.519531 12.796875 0.25 C 12.253906 -0.0078125 11.664062 -0.550781 11.03125 -1.375 C 10.40625 -2.207031 9.816406 -3.460938 9.265625 -5.140625 C 8.648438 -7.066406 8.097656 -8.8125 7.609375 -10.375 C 7.117188 -11.9375 6.660156 -13.4375 6.234375 -14.875 C 5.804688 -16.320312 5.347656 -17.828125 4.859375 -19.390625 C 4.648438 -20.109375 4.394531 -20.851562 4.09375 -21.625 C 3.789062 -22.394531 3.378906 -23.046875 2.859375 -23.578125 C 2.347656 -24.117188 1.675781 -24.390625 0.84375 -24.390625 Z M 0 -24.390625 "/></g></g></g><g fill="#000000" fill-opacity="1"><g transform="translate(131.005718, 175.444804)"><g><path d="M 14.078125 0.703125 C 12.191406 0.703125 10.507812 0.363281 9.03125 -0.3125 C 7.550781 -0.988281 6.296875 -1.925781 5.265625 -3.125 C 4.242188 -4.320312 3.457031 -5.710938 2.90625 -7.296875 C 2.363281 -8.878906 2.09375 -10.570312 2.09375 -12.375 C 2.09375 -14.164062 2.363281 -15.851562 2.90625 -17.4375 C 3.457031 -19.019531 4.242188 -20.410156 5.265625 -21.609375 C 6.296875 -22.804688 7.550781 -23.742188 9.03125 -24.421875 C 10.507812 -25.097656 12.191406 -25.4375 14.078125 -25.4375 C 15.960938 -25.4375 17.644531 -25.097656 19.125 -24.421875 C 20.601562 -23.742188 21.863281 -22.804688 22.90625 -21.609375 C 23.957031 -20.410156 24.757812 -19.019531 25.3125 -17.4375 C 25.863281 -15.851562 26.140625 -14.164062 26.140625 -12.375 C 26.140625 -10.570312 25.863281 -8.878906 25.3125 -7.296875 C 24.757812 -5.710938 23.957031 -4.320312 22.90625 -3.125 C 21.863281 -1.925781 20.601562 -0.988281 19.125 -0.3125 C 17.644531 0.363281 15.960938 0.703125 14.078125 0.703125 Z M 5.0625 -12.375 C 5.0625 -9.8125 5.429688 -7.578125 6.171875 -5.671875 C 6.921875 -3.773438 7.976562 -2.304688 9.34375 -1.265625 C 10.707031 -0.234375 12.285156 0.28125 14.078125 0.28125 C 15.898438 0.28125 17.488281 -0.234375 18.84375 -1.265625 C 20.207031 -2.304688 21.265625 -3.773438 22.015625 -5.671875 C 22.773438 -7.578125 23.15625 -9.8125 23.15625 -12.375 C 23.15625 -14.9375 22.773438 -17.164062 22.015625 -19.0625 C 21.265625 -20.957031 20.207031 -22.421875 18.84375 -23.453125 C 17.488281 -24.492188 15.898438 -25.015625 14.078125 -25.015625 C 12.285156 -25.015625 10.707031 -24.492188 9.34375 -23.453125 C 7.976562 -22.421875 6.921875 -20.957031 6.171875 -19.0625 C 5.429688 -17.164062 5.0625 -14.9375 5.0625 -12.375 Z M 5.0625 -12.375 "/></g></g></g><g fill="#000000" fill-opacity="1"><g transform="translate(159.233082, 175.444804)"><g><path d="M 0.703125 -24.390625 L 0.703125 -24.734375 L 6.921875 -24.734375 C 6.921875 -24.597656 6.921875 -24.1875 6.921875 -23.5 C 6.921875 -22.8125 6.921875 -21.957031 6.921875 -20.9375 C 6.921875 -19.925781 6.925781 -18.832031 6.9375 -17.65625 C 6.945312 -16.476562 6.953125 -15.304688 6.953125 -14.140625 C 6.953125 -12.984375 6.953125 -11.925781 6.953125 -10.96875 C 6.953125 -10.007812 6.953125 -9.242188 6.953125 -8.671875 C 6.953125 -8.109375 6.953125 -7.828125 6.953125 -7.828125 C 6.953125 -6.265625 7.144531 -4.984375 7.53125 -3.984375 C 7.914062 -2.984375 8.414062 -2.195312 9.03125 -1.625 C 9.644531 -1.050781 10.304688 -0.628906 11.015625 -0.359375 C 11.734375 -0.0976562 12.425781 0.0546875 13.09375 0.109375 C 13.769531 0.171875 14.34375 0.203125 14.8125 0.203125 C 15.695312 0.203125 16.609375 0.113281 17.546875 -0.0625 C 18.492188 -0.25 19.390625 -0.492188 20.234375 -0.796875 L 20.234375 -15.015625 C 20.234375 -17.328125 20.171875 -19.160156 20.046875 -20.515625 C 19.929688 -21.878906 19.644531 -22.863281 19.1875 -23.46875 C 18.738281 -24.082031 18.015625 -24.390625 17.015625 -24.390625 L 17.015625 -24.734375 L 23.234375 -24.734375 L 23.234375 -9.71875 C 23.234375 -7.425781 23.289062 -5.59375 23.40625 -4.21875 C 23.519531 -2.851562 23.800781 -1.863281 24.25 -1.25 C 24.707031 -0.644531 25.441406 -0.34375 26.453125 -0.34375 L 26.453125 0 L 22.46875 0 C 21.507812 0 20.441406 0.0546875 19.265625 0.171875 C 18.085938 0.285156 16.957031 0.398438 15.875 0.515625 C 14.789062 0.640625 13.910156 0.703125 13.234375 0.703125 C 12.609375 0.703125 11.894531 0.660156 11.09375 0.578125 C 10.289062 0.492188 9.46875 0.316406 8.625 0.046875 C 7.789062 -0.210938 7.015625 -0.625 6.296875 -1.1875 C 5.585938 -1.75 5.007812 -2.503906 4.5625 -3.453125 C 4.125 -4.410156 3.90625 -5.625 3.90625 -7.09375 L 3.90625 -15.015625 C 3.90625 -17.328125 3.847656 -19.160156 3.734375 -20.515625 C 3.617188 -21.878906 3.332031 -22.863281 2.875 -23.46875 C 2.425781 -24.082031 1.703125 -24.390625 0.703125 -24.390625 Z M 0.703125 -24.390625 "/></g></g></g><g fill="#000000" fill-opacity="1"><g transform="translate(82.190869, 127.24186)"><g><path d="M 1.046875 -34.9375 L 25.46875 -34.9375 L 25.46875 -30.21875 L 25.125 -30.21875 C 25.125 -30.269531 25.128906 -30.285156 25.140625 -30.265625 C 25.148438 -30.253906 25.15625 -30.285156 25.15625 -30.359375 C 25.15625 -31.148438 24.707031 -31.859375 23.8125 -32.484375 C 22.914062 -33.117188 21.679688 -33.628906 20.109375 -34.015625 C 18.535156 -34.398438 16.75 -34.59375 14.75 -34.59375 L 14.75 -9.71875 C 14.75 -7.425781 14.78125 -5.59375 14.84375 -4.21875 C 14.914062 -2.851562 15.15625 -1.863281 15.5625 -1.25 C 15.96875 -0.644531 16.671875 -0.34375 17.671875 -0.34375 L 17.671875 0 L 8.5625 0 L 8.5625 -0.34375 C 9.5625 -0.34375 10.285156 -0.644531 10.734375 -1.25 C 11.191406 -1.863281 11.476562 -2.851562 11.59375 -4.21875 C 11.71875 -5.59375 11.78125 -7.425781 11.78125 -9.71875 L 11.78125 -34.59375 C 9.769531 -34.59375 7.976562 -34.398438 6.40625 -34.015625 C 4.832031 -33.628906 3.597656 -33.117188 2.703125 -32.484375 C 1.804688 -31.859375 1.359375 -31.148438 1.359375 -30.359375 C 1.359375 -30.285156 1.363281 -30.253906 1.375 -30.265625 C 1.382812 -30.285156 1.390625 -30.269531 1.390625 -30.21875 L 1.046875 -30.21875 Z M 1.046875 -34.9375 "/></g></g></g><g fill="#000000" fill-opacity="1"><g transform="translate(108.706427, 127.24186)"><g><path d="M 1.046875 -0.34375 C 2.046875 -0.34375 2.769531 -0.644531 3.21875 -1.25 C 3.675781 -1.863281 3.960938 -2.851562 4.078125 -4.21875 C 4.203125 -5.59375 4.265625 -7.425781 4.265625 -9.71875 L 4.265625 -25.21875 C 4.265625 -27.53125 4.203125 -29.363281 4.078125 -30.71875 C 3.960938 -32.082031 3.675781 -33.066406 3.21875 -33.671875 C 2.769531 -34.285156 2.046875 -34.59375 1.046875 -34.59375 L 1.046875 -34.9375 L 7.265625 -34.9375 L 7.265625 -24.84375 C 7.585938 -24.84375 8.050781 -24.867188 8.65625 -24.921875 C 9.269531 -24.984375 9.9375 -25.054688 10.65625 -25.140625 C 11.375 -25.222656 12.0625 -25.289062 12.71875 -25.34375 C 13.375 -25.40625 13.882812 -25.4375 14.25 -25.4375 C 14.882812 -25.4375 15.601562 -25.394531 16.40625 -25.3125 C 17.207031 -25.226562 18.023438 -25.050781 18.859375 -24.78125 C 19.703125 -24.519531 20.476562 -24.109375 21.1875 -23.546875 C 21.894531 -22.984375 22.46875 -22.222656 22.90625 -21.265625 C 23.351562 -20.316406 23.578125 -19.109375 23.578125 -17.640625 L 23.578125 -9.71875 C 23.578125 -7.425781 23.632812 -5.59375 23.75 -4.21875 C 23.875 -2.851562 24.160156 -1.863281 24.609375 -1.25 C 25.066406 -0.644531 25.796875 -0.34375 26.796875 -0.34375 L 26.796875 0 L 17.359375 0 L 17.359375 -0.34375 C 18.359375 -0.34375 19.085938 -0.644531 19.546875 -1.25 C 20.003906 -1.863281 20.289062 -2.851562 20.40625 -4.21875 C 20.519531 -5.59375 20.578125 -7.425781 20.578125 -9.71875 C 20.578125 -9.925781 20.578125 -10.300781 20.578125 -10.84375 C 20.578125 -11.394531 20.578125 -12.015625 20.578125 -12.703125 C 20.578125 -13.390625 20.570312 -14.050781 20.5625 -14.6875 C 20.550781 -15.332031 20.546875 -15.863281 20.546875 -16.28125 C 20.546875 -16.695312 20.546875 -16.90625 20.546875 -16.90625 C 20.546875 -18.46875 20.351562 -19.75 19.96875 -20.75 C 19.582031 -21.75 19.078125 -22.535156 18.453125 -23.109375 C 17.835938 -23.679688 17.175781 -24.097656 16.46875 -24.359375 C 15.757812 -24.628906 15.066406 -24.789062 14.390625 -24.84375 C 13.710938 -24.90625 13.144531 -24.9375 12.6875 -24.9375 C 11.800781 -24.9375 10.882812 -24.84375 9.9375 -24.65625 C 9 -24.476562 8.109375 -24.238281 7.265625 -23.9375 L 7.265625 -9.71875 C 7.265625 -7.425781 7.320312 -5.59375 7.4375 -4.21875 C 7.550781 -2.851562 7.835938 -1.863281 8.296875 -1.25 C 8.753906 -0.644531 9.484375 -0.34375 10.484375 -0.34375 L 10.484375 0 L 1.046875 0 Z M 1.046875 -0.34375 "/></g></g></g><g fill="#000000" fill-opacity="1"><g transform="translate(136.200157, 127.24186)"><g><path d="M 2.09375 -7.0625 C 2.09375 -8.800781 2.410156 -10.25 3.046875 -11.40625 C 3.691406 -12.5625 4.535156 -13.5 5.578125 -14.21875 C 6.628906 -14.9375 7.785156 -15.507812 9.046875 -15.9375 C 10.304688 -16.375 11.5625 -16.738281 12.8125 -17.03125 C 14.070312 -17.320312 15.226562 -17.625 16.28125 -17.9375 C 17.332031 -18.25 18.175781 -18.648438 18.8125 -19.140625 C 19.457031 -19.628906 19.78125 -20.285156 19.78125 -21.109375 C 19.78125 -22.054688 19.460938 -22.820312 18.828125 -23.40625 C 18.203125 -23.988281 17.421875 -24.410156 16.484375 -24.671875 C 15.554688 -24.941406 14.613281 -25.078125 13.65625 -25.078125 C 12.5625 -25.078125 11.515625 -24.941406 10.515625 -24.671875 C 9.515625 -24.410156 8.695312 -23.984375 8.0625 -23.390625 C 7.4375 -22.796875 7.125 -22.007812 7.125 -21.03125 C 7.125 -20.375 7.316406 -19.898438 7.703125 -19.609375 C 8.085938 -19.328125 8.363281 -19.265625 8.53125 -19.421875 C 8.707031 -18.910156 8.566406 -18.445312 8.109375 -18.03125 C 7.660156 -17.613281 7.144531 -17.40625 6.5625 -17.40625 C 5.820312 -17.40625 5.21875 -17.679688 4.75 -18.234375 C 4.28125 -18.796875 4.046875 -19.445312 4.046875 -20.1875 C 4.046875 -21.351562 4.460938 -22.320312 5.296875 -23.09375 C 6.140625 -23.863281 7.289062 -24.445312 8.75 -24.84375 C 10.207031 -25.238281 11.84375 -25.4375 13.65625 -25.4375 C 14.632812 -25.4375 15.65625 -25.335938 16.71875 -25.140625 C 17.78125 -24.941406 18.765625 -24.648438 19.671875 -24.265625 C 20.578125 -23.878906 21.316406 -23.414062 21.890625 -22.875 C 22.460938 -22.34375 22.75 -21.726562 22.75 -21.03125 C 22.75 -20.332031 22.503906 -19.769531 22.015625 -19.34375 C 21.523438 -18.925781 20.859375 -18.597656 20.015625 -18.359375 C 19.179688 -18.117188 18.238281 -17.890625 17.1875 -17.671875 C 16.132812 -17.460938 15.054688 -17.222656 13.953125 -16.953125 C 12.847656 -16.691406 11.769531 -16.328125 10.71875 -15.859375 C 9.675781 -15.390625 8.734375 -14.78125 7.890625 -14.03125 C 7.054688 -13.289062 6.394531 -12.332031 5.90625 -11.15625 C 5.414062 -9.976562 5.171875 -8.539062 5.171875 -6.84375 C 5.171875 -5.632812 5.410156 -4.546875 5.890625 -3.578125 C 6.367188 -2.609375 7.035156 -1.84375 7.890625 -1.28125 C 8.753906 -0.726562 9.757812 -0.453125 10.90625 -0.453125 C 11.851562 -0.453125 12.820312 -0.707031 13.8125 -1.21875 C 14.800781 -1.726562 15.726562 -2.539062 16.59375 -3.65625 C 17.457031 -4.78125 18.148438 -6.234375 18.671875 -8.015625 C 19.191406 -9.796875 19.453125 -11.957031 19.453125 -14.5 C 19.453125 -14.894531 19.414062 -15.257812 19.34375 -15.59375 C 19.28125 -15.9375 19.117188 -16.144531 18.859375 -16.21875 C 18.859375 -16.332031 18.945312 -16.441406 19.125 -16.546875 C 19.300781 -16.648438 19.53125 -16.703125 19.8125 -16.703125 C 20.675781 -16.703125 21.304688 -16.4375 21.703125 -15.90625 C 22.097656 -15.382812 22.359375 -14.707031 22.484375 -13.875 C 22.609375 -13.050781 22.671875 -12.175781 22.671875 -11.25 C 22.671875 -10.476562 22.671875 -9.832031 22.671875 -9.3125 C 22.671875 -8.789062 22.675781 -8.289062 22.6875 -7.8125 C 22.695312 -7.332031 22.703125 -6.796875 22.703125 -6.203125 C 22.703125 -5.609375 22.703125 -4.84375 22.703125 -3.90625 C 22.703125 -2.9375 22.859375 -2.191406 23.171875 -1.671875 C 23.492188 -1.160156 23.863281 -0.8125 24.28125 -0.625 C 24.695312 -0.4375 25.054688 -0.34375 25.359375 -0.34375 L 25.359375 0 L 22.890625 0 C 21.953125 0 21.160156 -0.394531 20.515625 -1.1875 C 19.878906 -1.976562 19.5625 -3.023438 19.5625 -4.328125 L 19.5625 -10.3125 C 19.257812 -8.820312 18.863281 -7.410156 18.375 -6.078125 C 17.882812 -4.753906 17.269531 -3.578125 16.53125 -2.546875 C 15.800781 -1.523438 14.894531 -0.726562 13.8125 -0.15625 C 12.726562 0.414062 11.421875 0.703125 9.890625 0.703125 C 8.398438 0.703125 7.066406 0.367188 5.890625 -0.296875 C 4.710938 -0.960938 3.785156 -1.882812 3.109375 -3.0625 C 2.429688 -4.238281 2.09375 -5.570312 2.09375 -7.0625 Z M 2.09375 -7.0625 "/></g></g></g><g fill="#000000" fill-opacity="1"><g transform="translate(162.261567, 127.24186)"><g><path d="M 1.046875 -0.34375 C 2.046875 -0.34375 2.769531 -0.644531 3.21875 -1.25 C 3.675781 -1.863281 3.960938 -2.851562 4.078125 -4.21875 C 4.203125 -5.59375 4.265625 -7.425781 4.265625 -9.71875 L 4.265625 -15.015625 C 4.265625 -17.328125 4.203125 -19.160156 4.078125 -20.515625 C 3.960938 -21.878906 3.675781 -22.863281 3.21875 -23.46875 C 2.769531 -24.082031 2.046875 -24.390625 1.046875 -24.390625 L 1.046875 -24.734375 L 5.03125 -24.734375 C 5.988281 -24.734375 7.050781 -24.789062 8.21875 -24.90625 C 9.394531 -25.019531 10.53125 -25.132812 11.625 -25.25 C 12.726562 -25.375 13.601562 -25.4375 14.25 -25.4375 C 14.882812 -25.4375 15.601562 -25.394531 16.40625 -25.3125 C 17.207031 -25.226562 18.023438 -25.050781 18.859375 -24.78125 C 19.703125 -24.519531 20.476562 -24.109375 21.1875 -23.546875 C 21.894531 -22.984375 22.46875 -22.222656 22.90625 -21.265625 C 23.351562 -20.316406 23.578125 -19.109375 23.578125 -17.640625 L 23.578125 -9.71875 C 23.578125 -7.425781 23.632812 -5.59375 23.75 -4.21875 C 23.875 -2.851562 24.160156 -1.863281 24.609375 -1.25 C 25.066406 -0.644531 25.796875 -0.34375 26.796875 -0.34375 L 26.796875 0 L 17.359375 0 L 17.359375 -0.34375 C 18.359375 -0.34375 19.085938 -0.644531 19.546875 -1.25 C 20.003906 -1.863281 20.289062 -2.851562 20.40625 -4.21875 C 20.519531 -5.59375 20.578125 -7.425781 20.578125 -9.71875 C 20.578125 -9.925781 20.578125 -10.300781 20.578125 -10.84375 C 20.578125 -11.394531 20.578125 -12.015625 20.578125 -12.703125 C 20.578125 -13.390625 20.570312 -14.050781 20.5625 -14.6875 C 20.550781 -15.332031 20.546875 -15.863281 20.546875 -16.28125 C 20.546875 -16.695312 20.546875 -16.90625 20.546875 -16.90625 C 20.546875 -18.46875 20.351562 -19.75 19.96875 -20.75 C 19.582031 -21.75 19.078125 -22.535156 18.453125 -23.109375 C 17.835938 -23.679688 17.175781 -24.097656 16.46875 -24.359375 C 15.757812 -24.628906 15.066406 -24.789062 14.390625 -24.84375 C 13.710938 -24.90625 13.144531 -24.9375 12.6875 -24.9375 C 11.800781 -24.9375 10.882812 -24.84375 9.9375 -24.65625 C 9 -24.476562 8.109375 -24.238281 7.265625 -23.9375 L 7.265625 -9.71875 C 7.265625 -7.425781 7.320312 -5.59375 7.4375 -4.21875 C 7.550781 -2.851562 7.835938 -1.863281 8.296875 -1.25 C 8.753906 -0.644531 9.484375 -0.34375 10.484375 -0.34375 L 10.484375 0 L 1.046875 0 Z M 1.046875 -0.34375 "/></g></g></g><g fill="#000000" fill-opacity="1"><g transform="translate(189.755297, 127.24186)"><g><path d="M 10.484375 0 L 1.046875 0 L 1.046875 -0.34375 C 2.046875 -0.34375 2.769531 -0.644531 3.21875 -1.25 C 3.675781 -1.863281 3.960938 -2.851562 4.078125 -4.21875 C 4.203125 -5.59375 4.265625 -7.425781 4.265625 -9.71875 L 4.265625 -25.21875 C 4.265625 -27.53125 4.203125 -29.363281 4.078125 -30.71875 C 3.960938 -32.082031 3.675781 -33.066406 3.21875 -33.671875 C 2.769531 -34.285156 2.046875 -34.59375 1.046875 -34.59375 L 1.046875 -34.9375 L 7.265625 -34.9375 L 7.265625 -9.71875 C 7.265625 -7.425781 7.320312 -5.59375 7.4375 -4.21875 C 7.550781 -2.851562 7.835938 -1.863281 8.296875 -1.25 C 8.753906 -0.644531 9.484375 -0.34375 10.484375 -0.34375 Z M 18.34375 -22.78125 C 18.34375 -23.25 18.21875 -23.632812 17.96875 -23.9375 C 17.726562 -24.238281 17.304688 -24.390625 16.703125 -24.390625 L 16.703125 -24.734375 L 20.890625 -24.734375 C 21.148438 -24.734375 21.3125 -24.640625 21.375 -24.453125 C 21.445312 -24.265625 21.484375 -24.054688 21.484375 -23.828125 C 21.484375 -22.679688 21.164062 -21.722656 20.53125 -20.953125 C 19.90625 -20.191406 19.101562 -19.570312 18.125 -19.09375 C 17.15625 -18.613281 16.113281 -18.222656 15 -17.921875 C 13.894531 -17.617188 12.851562 -17.359375 11.875 -17.140625 C 10.894531 -16.921875 10.09375 -16.675781 9.46875 -16.40625 C 8.84375 -16.132812 8.53125 -15.789062 8.53125 -15.375 C 8.53125 -14.957031 8.742188 -14.632812 9.171875 -14.40625 C 9.597656 -14.1875 10.160156 -13.96875 10.859375 -13.75 C 11.554688 -13.53125 12.332031 -13.238281 13.1875 -12.875 C 14.039062 -12.507812 14.882812 -12.003906 15.71875 -11.359375 C 16.5625 -10.722656 17.332031 -9.847656 18.03125 -8.734375 C 18.519531 -7.960938 18.867188 -7.222656 19.078125 -6.515625 C 19.285156 -5.804688 19.476562 -5.101562 19.65625 -4.40625 C 19.832031 -3.707031 20.082031 -2.960938 20.40625 -2.171875 C 20.65625 -1.585938 21 -1.132812 21.4375 -0.8125 C 21.882812 -0.5 22.539062 -0.34375 23.40625 -0.34375 L 23.40625 0 L 19.390625 0 C 18.859375 0 18.425781 -0.195312 18.09375 -0.59375 C 17.769531 -0.988281 17.519531 -1.476562 17.34375 -2.0625 C 17.164062 -2.644531 17 -3.203125 16.84375 -3.734375 C 16.5625 -4.765625 16.296875 -5.695312 16.046875 -6.53125 C 15.804688 -7.375 15.523438 -8.085938 15.203125 -8.671875 C 14.617188 -9.691406 14.003906 -10.515625 13.359375 -11.140625 C 12.722656 -11.773438 12.101562 -12.273438 11.5 -12.640625 C 10.894531 -13.015625 10.335938 -13.320312 9.828125 -13.5625 C 9.328125 -13.8125 8.925781 -14.070312 8.625 -14.34375 C 8.320312 -14.613281 8.171875 -14.957031 8.171875 -15.375 C 8.171875 -15.90625 8.414062 -16.335938 8.90625 -16.671875 C 9.394531 -17.015625 10.023438 -17.304688 10.796875 -17.546875 C 11.566406 -17.796875 12.382812 -18.039062 13.25 -18.28125 C 14.125 -18.53125 14.945312 -18.832031 15.71875 -19.1875 C 16.488281 -19.550781 17.117188 -20.019531 17.609375 -20.59375 C 18.097656 -21.164062 18.34375 -21.894531 18.34375 -22.78125 Z M 18.34375 -22.78125 "/></g></g></g></g></g></svg>